<svg width="37" height="37" viewBox="0 0 37 37" fill="none" xmlns="http://www.w3.org/2000/svg">
<rect x="1.16016" y="1.16992" width="35" height="35" rx="17.5" fill="white"/>
<rect x="1.16016" y="1.16992" width="35" height="35" rx="17.5" stroke="#F50963"/>
<path d="M20.4604 19.1169C20.4604 19.5943 20.2707 20.0521 19.9331 20.3897C19.5956 20.7273 19.1377 20.9169 18.6604 20.9169C18.183 20.9169 17.7251 20.7273 17.3876 20.3897C17.05 20.0521 16.8604 19.5943 16.8604 19.1169C16.8604 18.6395 17.05 18.1817 17.3876 17.8441C17.7251 17.5065 18.183 17.3169 18.6604 17.3169C19.1377 17.3169 19.5956 17.5065 19.9331 17.8441C20.2707 18.1817 20.4604 18.6395 20.4604 19.1169Z" stroke="#F50963" stroke-linecap="round" stroke-linejoin="round"/>
<path d="M12.6602 19.117C13.6202 16.6588 15.8618 14.917 18.6602 14.917C21.4586 14.917 23.7002 16.6588 24.6602 19.117C23.7002 21.5752 21.4586 23.317 18.6602 23.317C15.8618 23.317 13.6202 21.5752 12.6602 19.117Z" stroke="#F50963" stroke-linecap="round" stroke-linejoin="round"/>
</svg>
