<svg width="19" height="12" viewBox="0 0 19 12" fill="none" xmlns="http://www.w3.org/2000/svg">
<path d="M8.0293 5.4375C9.37305 5.8125 10.0293 6.84375 10.0293 8.21875C10.0293 10.4688 8.1543 11.4375 6.12305 11.4375H0.779297V0.375H5.99805C7.87305 0.375 9.5293 0.90625 9.5293 3.125C9.5293 4.21875 8.99805 4.9375 8.0293 5.4375ZM3.18555 2.25V4.84375H5.6543C6.5293 4.84375 7.1543 4.46875 7.1543 3.53125C7.1543 2.5 6.37305 2.25 5.49805 2.25H3.18555ZM5.81055 9.5625C6.7793 9.5625 7.5918 9.21875 7.5918 8.09375C7.5918 6.96875 6.93555 6.5 5.8418 6.5H3.18555V9.5625H5.81055ZM16.998 2.03125H12.5293V0.9375H16.998V2.03125ZM18.7793 7.5625C18.7793 7.6875 18.748 7.84375 18.748 7.96875H12.9668C12.9668 9.25 13.6543 10 14.9355 10C15.5918 10 16.4668 9.65625 16.6855 8.96875H18.623C18.0293 10.7812 16.7793 11.6562 14.873 11.6562C12.3418 11.6562 10.748 9.9375 10.748 7.4375C10.748 5.03125 12.4043 3.1875 14.873 3.1875C17.373 3.1875 18.7793 5.1875 18.7793 7.5625ZM12.9668 6.5625H16.5605C16.4668 5.5 15.9043 4.875 14.7793 4.875C13.748 4.875 13.0293 5.53125 12.9668 6.5625Z" fill="white" fill-opacity="0.6"/>
<a href="https://www.figma.com/design/0o5FWZoSM38LyD6YsAAx9K/Machine_Test-Ads_Marketplace_Design-(2)-(1)?node-id=1-1802">
<rect fill="black" fill-opacity="0" y="-1.2" width="18" height="18.4"/>
</a>
</svg>
