<svg width="37" height="37" viewBox="0 0 37 37" fill="none" xmlns="http://www.w3.org/2000/svg">
<rect x="1.33008" y="1.16992" width="35" height="35" rx="17.5" fill="white"/>
<rect x="1.33008" y="1.16992" width="35" height="35" rx="17.5" stroke="#E1E1E1"/>
<path d="M20.6303 19.1169C20.6303 19.5943 20.4406 20.0521 20.1031 20.3897C19.7655 20.7273 19.3077 20.9169 18.8303 20.9169C18.3529 20.9169 17.895 20.7273 17.5575 20.3897C17.2199 20.0521 17.0303 19.5943 17.0303 19.1169C17.0303 18.6395 17.2199 18.1817 17.5575 17.8441C17.895 17.5065 18.3529 17.3169 18.8303 17.3169C19.3077 17.3169 19.7655 17.5065 20.1031 17.8441C20.4406 18.1817 20.6303 18.6395 20.6303 19.1169Z" stroke="black" stroke-linecap="round" stroke-linejoin="round"/>
<path d="M12.8301 19.117C13.7901 16.6588 16.0317 14.917 18.8301 14.917C21.6285 14.917 23.8701 16.6588 24.8301 19.117C23.8701 21.5752 21.6285 23.317 18.8301 23.317C16.0317 23.317 13.7901 21.5752 12.8301 19.117Z" stroke="black" stroke-linecap="round" stroke-linejoin="round"/>
</svg>
