<svg width="14" height="15" viewBox="0 0 14 15" fill="none" xmlns="http://www.w3.org/2000/svg">
<path d="M13.5078 5.01184C13.8086 5.25793 14 5.6134 14 6.02356V13.1876C14 13.9259 13.3984 14.5001 12.6875 14.5001H1.3125C0.574219 14.5001 0 13.9259 0 13.1876V6.02356C0 5.6134 0.164062 5.25793 0.464844 5.01184C0.574219 4.92981 3.5 2.57824 4.15625 2.03137C4.78516 1.53918 5.79688 0.500122 7 0.500122C8.17578 0.500122 9.21484 1.56653 9.81641 2.03137C10.4453 2.5509 13.3711 4.90246 13.5078 5.01184ZM12.6875 13.0235V6.10559C12.6875 6.0509 12.6602 5.99621 12.6055 5.96887C12.168 5.6134 9.625 3.58996 8.99609 3.07043C8.50391 2.68762 7.62891 1.81262 7 1.81262C6.34375 1.81262 5.46875 2.66028 4.97656 3.07043C4.34766 3.58996 1.80469 5.6134 1.36719 5.96887C1.3125 5.99621 1.3125 6.0509 1.3125 6.10559V13.0235C1.3125 13.1329 1.36719 13.1876 1.47656 13.1876H12.5234C12.6055 13.1876 12.6875 13.1329 12.6875 13.0235ZM11.8125 7.91028C11.9219 8.047 11.8945 8.26574 11.7578 8.37512C10.9648 9.00403 10.1172 9.66028 9.81641 9.93372C9.1875 10.4259 8.17578 11.4376 7 11.4376C5.79688 11.4376 4.75781 10.3985 4.15625 9.93372C3.85547 9.68762 3.00781 9.00403 2.21484 8.37512C2.07812 8.26574 2.05078 8.047 2.16016 7.91028L2.59766 7.39074C2.70703 7.25403 2.89844 7.22668 3.0625 7.3634C3.82812 7.99231 4.64844 8.64856 4.97656 8.89465C5.46875 9.27746 6.34375 10.1251 7 10.1251C7.62891 10.1251 8.50391 9.30481 8.99609 8.89465C9.32422 8.64856 10.1445 7.99231 10.9102 7.3634C11.0742 7.22668 11.2656 7.25403 11.375 7.39074L11.8125 7.91028Z" fill="#212121"/>
</svg>
