<svg width="40" height="40" viewBox="0 0 40 40" fill="none" xmlns="http://www.w3.org/2000/svg">
<rect x="0.5" y="0.5" width="39" height="39" rx="19.5" fill="#212121"/>
<rect x="0.5" y="0.5" width="39" height="39" rx="19.5" stroke="#212121"/>
<path d="M25.6875 15.375C26.3984 15.375 27 15.9766 27 16.6875V26.3125C27 27.0508 26.3984 27.625 25.6875 27.625H14.3125C13.5742 27.625 13 27.0508 13 26.3125V16.6875C13 15.9766 13.5742 15.375 14.3125 15.375H25.6875ZM18.3867 16.4688V19.0938H21.5859V16.4688H18.3867ZM18.3867 20.1875V22.8125H21.5859V20.1875H18.3867ZM17.293 26.5312V23.9062H14.0938V26.2031C14.0938 26.3945 14.2305 26.5312 14.4219 26.5312H17.293ZM17.293 22.8125V20.1875H14.0938V22.8125H17.293ZM17.293 19.0938V16.4688H14.4219C14.2305 16.4688 14.0938 16.6328 14.0938 16.7969V19.0938H17.293ZM21.5859 26.5312V23.9062H18.3867V26.5312H21.5859ZM25.9062 26.5312V23.9062H22.6797V26.5312H25.9062ZM25.9062 22.8125V20.1875H22.6797V22.8125H25.9062ZM25.9062 19.0938V16.4688H22.6797V19.0938H25.9062Z" fill="white"/>
</svg>
