<svg width="40" height="40" viewBox="0 0 40 40" fill="none" xmlns="http://www.w3.org/2000/svg">
<rect x="0.5" y="0.5" width="39" height="39" rx="19.5" stroke="#E1E1E1"/>
<path d="M15.1875 15.3125C15.4062 15.3125 15.625 15.5312 15.625 15.75V17.5C15.625 17.7461 15.4062 17.9375 15.1875 17.9375H13.4375C13.1914 17.9375 13 17.7461 13 17.5V15.75C13 15.5312 13.1914 15.3125 13.4375 15.3125H15.1875ZM15.1875 19.6875C15.4062 19.6875 15.625 19.9062 15.625 20.125V21.875C15.625 22.1211 15.4062 22.3125 15.1875 22.3125H13.4375C13.1914 22.3125 13 22.1211 13 21.875V20.125C13 19.9062 13.1914 19.6875 13.4375 19.6875H15.1875ZM15.1875 24.0625C15.4062 24.0625 15.625 24.2812 15.625 24.5V26.25C15.625 26.4961 15.4062 26.6875 15.1875 26.6875H13.4375C13.1914 26.6875 13 26.4961 13 26.25V24.5C13 24.2812 13.1914 24.0625 13.4375 24.0625H15.1875ZM26.5625 20.3438C26.7812 20.3438 27 20.5625 27 20.7812V21.2188C27 21.4648 26.7812 21.6562 26.5625 21.6562H17.8125C17.5664 21.6562 17.375 21.4648 17.375 21.2188V20.7812C17.375 20.5625 17.5664 20.3438 17.8125 20.3438H26.5625ZM26.5625 24.7188C26.7812 24.7188 27 24.9375 27 25.1562V25.5938C27 25.8398 26.7812 26.0312 26.5625 26.0312H17.8125C17.5664 26.0312 17.375 25.8398 17.375 25.5938V25.1562C17.375 24.9375 17.5664 24.7188 17.8125 24.7188H26.5625ZM26.5625 15.9688C26.7812 15.9688 27 16.1875 27 16.4062V16.8438C27 17.0898 26.7812 17.2812 26.5625 17.2812H17.8125C17.5664 17.2812 17.375 17.0898 17.375 16.8438V16.4062C17.375 16.1875 17.5664 15.9688 17.8125 15.9688H26.5625Z" fill="#212121"/>
</svg>
