<svg width="17" height="14" viewBox="0 0 17 14" fill="none" xmlns="http://www.w3.org/2000/svg">
<path d="M14.7344 3.75C14.7344 3.90625 14.7344 4.03125 14.7344 4.1875C14.7344 8.53125 11.4531 13.5 5.42188 13.5C3.54688 13.5 1.82812 12.9688 0.390625 12.0312C0.640625 12.0625 0.890625 12.0938 1.17188 12.0938C2.70312 12.0938 4.10938 11.5625 5.23438 10.6875C3.79688 10.6562 2.57812 9.71875 2.17188 8.40625C2.39062 8.4375 2.57812 8.46875 2.79688 8.46875C3.07812 8.46875 3.39062 8.40625 3.64062 8.34375C2.14062 8.03125 1.01562 6.71875 1.01562 5.125V5.09375C1.45312 5.34375 1.98438 5.46875 2.51562 5.5C1.60938 4.90625 1.04688 3.90625 1.04688 2.78125C1.04688 2.15625 1.20312 1.59375 1.48438 1.125C3.10938 3.09375 5.54688 4.40625 8.26562 4.5625C8.20312 4.3125 8.17188 4.0625 8.17188 3.8125C8.17188 2 9.64062 0.53125 11.4531 0.53125C12.3906 0.53125 13.2344 0.90625 13.8594 1.5625C14.5781 1.40625 15.2969 1.125 15.9219 0.75C15.6719 1.53125 15.1719 2.15625 14.4844 2.5625C15.1406 2.5 15.7969 2.3125 16.3594 2.0625C15.9219 2.71875 15.3594 3.28125 14.7344 3.75Z" fill="white" fill-opacity="0.6"/>
<a href="https://www.figma.com/design/0o5FWZoSM38LyD6YsAAx9K/Machine_Test-Ads_Marketplace_Design-(2)-(1)?node-id=1-1802">
<rect fill="black" fill-opacity="0" y="-1.2" width="16" height="18.4"/>
</a>
</svg>
