<svg width="18" height="12" viewBox="0 0 18 12" fill="none" xmlns="http://www.w3.org/2000/svg">
<path d="M17.3262 1.90625C17.7012 3.21875 17.7012 6.03125 17.7012 6.03125C17.7012 6.03125 17.7012 8.8125 17.3262 10.1562C17.1387 10.9062 16.5449 11.4688 15.8262 11.6562C14.4824 12 9.16992 12 9.16992 12C9.16992 12 3.82617 12 2.48242 11.6562C1.76367 11.4688 1.16992 10.9062 0.982422 10.1562C0.607422 8.8125 0.607422 6.03125 0.607422 6.03125C0.607422 6.03125 0.607422 3.21875 0.982422 1.90625C1.16992 1.15625 1.76367 0.5625 2.48242 0.375C3.82617 0 9.16992 0 9.16992 0C9.16992 0 14.4824 0 15.8262 0.375C16.5449 0.5625 17.1387 1.15625 17.3262 1.90625ZM7.41992 8.5625L11.8574 6.03125L7.41992 3.5V8.5625Z" fill="white" fill-opacity="0.6"/>
<a href="https://www.figma.com/design/0o5FWZoSM38LyD6YsAAx9K/Machine_Test-Ads_Marketplace_Design-(2)-(1)?node-id=1-1802">
<rect fill="black" fill-opacity="0" y="-1.2" width="18" height="18.4"/>
</a>
</svg>
